<svg width="68" height="70" viewBox="0 0 68 70" fill="none" xmlns="http://www.w3.org/2000/svg">
<path fill-rule="evenodd" clip-rule="evenodd" d="M44.853 0.777551C43.2409 1.29708 41.8498 2.02274 40.6792 2.95455C38.0051 5.07617 36.4069 8.4501 34.6728 13.0436C34.6016 12.984 34.531 12.9277 34.461 12.8747C32.5067 11.3775 30.6026 10.6223 28.7488 10.6091C26.5244 10.5932 24.2033 11.1178 21.7859 12.183L21.9483 12.7854C23.4727 12.195 24.9023 11.9045 26.2368 11.9141C29.1039 11.9345 31.5104 13.3939 33.456 16.2921L21.879 46.4598L19.9664 51.3098L9.50463 19.1602C9.33726 18.6682 9.25457 18.2586 9.25705 17.9315C9.25953 17.6044 9.29604 17.3184 9.36631 17.0735C9.71694 15.9311 10.4055 15.3637 11.4321 15.3715L11.894 15.3749L11.8987 14.7615L0.350603 14.6748L0.346008 15.2882L0.756585 15.2913C1.61201 15.2977 2.44783 15.6311 3.26404 16.2916C4.11504 16.9114 4.77483 17.8774 5.24416 19.1896L17.2486 52.7876C17.2483 54.0482 17.0906 54.0482 16.7755 54.6784C16.3027 55.3086 15.7745 55.6717 14.8848 55.6653H14.3571L14.3529 56.2664L25.5308 56.3462L25.5351 55.7448L25.0901 55.7418C24.2746 55.7359 23.6647 55.4711 23.2604 54.9469C22.8939 54.3831 22.7121 53.8608 22.7156 53.3798C22.7191 52.8987 22.8152 52.4182 23.0039 51.9384L26.9175 41.2631L42.155 41.3717L44.2749 48.242C46.4485 55.3931 49.1172 60.7235 52.2806 64.2338C53.7517 65.928 55.3365 67.2422 57.0355 68.1762C58.734 69.1504 60.4357 69.6436 62.1412 69.6558C63.8467 69.668 65.5914 69.3597 67.3756 68.731L67.3244 68.1295C66.5817 68.2846 65.7285 68.3587 64.7645 68.3517C63.8375 68.345 62.6533 68.0559 61.2113 67.4844C59.7695 66.9131 58.3861 65.921 57.0615 64.5085C55.7365 63.1361 54.2682 61.0611 52.6568 58.2834C51.0819 55.5462 49.5327 51.8472 48.0087 47.1862L41.3723 26.3334C40.0306 22.1145 38.9206 19.2003 38.0423 17.5905C37.4677 16.5729 36.9169 15.7003 36.3895 14.9725C36.9912 13.453 37.5106 12.2006 37.9482 11.2153C38.4349 10.1965 39.1113 8.97477 39.9775 7.54994C40.8441 6.08424 41.7252 4.92535 42.6214 4.07329C43.5518 3.18059 44.7212 2.41236 46.1289 1.7686C47.5369 1.08396 49.0455 0.706783 50.6541 0.637076L50.6588 0.0236945L48.7599 0.00943554C47.7676 0.00198037 46.4654 0.258018 44.853 0.777551ZM41.6117 39.564L27.542 39.4636L35.0277 19.1925C35.7212 20.7208 36.4848 22.8308 37.3184 25.5228L41.6117 39.564Z" fill="#A27E40"/>
</svg>
