<svg width="25" height="25" viewBox="0 0 25 25" fill="none" xmlns="http://www.w3.org/2000/svg">
<path d="M13 4.91447C9.10536 4.91447 5.93929 8.08016 5.93393 11.9743C5.93393 13.3081 6.30893 14.6097 7.01607 15.7292L7.18214 15.9971L6.46964 18.6003L9.14286 17.8986L9.4 18.0539C10.4821 18.6967 11.725 19.0395 12.9946 19.0395H13C16.8893 19.0395 20.1411 15.8739 20.1411 11.9797C20.1411 10.0942 19.3268 8.3212 17.9929 6.98744C16.6536 5.64831 14.8857 4.91447 13 4.91447ZM17.1518 15.0061C16.975 15.5043 16.1286 15.9542 15.7214 16.0131C15.0464 16.1149 14.5214 16.0613 13.1768 15.4828C11.05 14.5615 9.65714 12.4189 9.55 12.2796C9.44286 12.1404 8.68214 11.128 8.68214 10.0835C8.68214 9.03897 9.22857 8.52475 9.42679 8.31049C9.61964 8.09623 9.85 8.04266 9.99464 8.04266C10.1339 8.04266 10.2786 8.04266 10.4018 8.04802C10.5304 8.05338 10.7071 7.99981 10.8786 8.41226C11.0554 8.83542 11.4786 9.87994 11.5321 9.98707C11.5857 10.0942 11.6232 10.2174 11.5482 10.3567C11.1411 11.1709 10.7071 11.1387 10.9268 11.5137C11.7464 12.9224 12.5661 13.4099 13.8143 14.0366C14.0286 14.1437 14.1518 14.1276 14.275 13.983C14.3982 13.8437 14.8054 13.3617 14.9446 13.1528C15.0839 12.9385 15.2286 12.976 15.4214 13.0456C15.6143 13.1153 16.6589 13.6295 16.8732 13.7366C17.0875 13.8437 17.2268 13.8973 17.2804 13.983C17.3286 14.0848 17.3286 14.5133 17.1518 15.0061V15.0061ZM22.4286 0.0507812H3.57143C2.15179 0.0507812 1 1.20243 1 2.6219V21.4767C1 22.8962 2.15179 24.0479 3.57143 24.0479H22.4286C23.8482 24.0479 25 22.8962 25 21.4767V2.6219C25 1.20243 23.8482 0.0507812 22.4286 0.0507812ZM12.9946 20.4697C11.5696 20.4697 10.1714 20.1108 8.93393 19.4359L4.42857 20.6197L5.63393 16.2167C4.88929 14.9311 4.49821 13.4688 4.49821 11.969C4.50357 7.2874 8.3125 3.47893 12.9946 3.47893C15.2661 3.47893 17.3982 4.36276 19.0054 5.9697C20.6071 7.57665 21.5714 9.70853 21.5714 11.9797C21.5714 16.6613 17.6768 20.4697 12.9946 20.4697Z" fill="#A27E40"/>
</svg>
